<?xml version="1.0" encoding="UTF-8" standalone="no"?>
<svg width="165px" height="32px" viewBox="0 0 165 32" version="1.1" xmlns="http://www.w3.org/2000/svg" xmlns:xlink="http://www.w3.org/1999/xlink">
    <!-- Generator: Sketch 47.1 (45422) - http://www.bohemiancoding.com/sketch -->
    <title>CellPress_Rebrand_Logo_Wordmark_WO</title>
    <desc>Created with Sketch.</desc>
    <defs></defs>
    <g id="Page-1" stroke="none" stroke-width="1" fill="none" fill-rule="evenodd">
        <g id="Artboard" transform="translate(-178.000000, -382.000000)" fill-rule="nonzero" fill="#e0fcc4">
            <g id="CellPress_Rebrand_Logo_Wordmark_WO" transform="translate(178.000000, 382.000000)">
                <rect id="Rectangle-path" x="59.2328767" y="0.817534247" width="5.90246575" height="30.2772603"></rect>
                <path d="M14.1128767,5.49917808 C19.340274,5.49917808 20.3112329,8.9139726 20.8175342,10.7265753 L27.1386301,10.7265753 C26.8032877,6.25534247 23.1342466,0.0153424658 14.0712329,0.0153424658 C6.27287671,0.0153424658 0.16,5.41150685 0.16,15.9978082 C0.16,26.4569863 5.93534247,31.8969863 13.9879452,31.8969863 C21.5758904,31.8969863 25.8761644,27.3008219 27.1386301,20.7210959 L20.8175342,20.7210959 C20.0569863,24.4339726 17.6131507,26.4175342 14.1128767,26.4175342 C8.76054795,26.4175342 6.60821918,21.5232877 6.60821918,16.0810959 C6.60821918,7.52 11.0772603,5.49917808 14.1128767,5.49917808 Z" id="Shape"></path>
                <path d="M39.6186301,31.6865753 C43.4586301,31.6865753 47.9254795,29.9134247 49.4838356,24.5172603 L43.4169863,24.5172603 C42.950137,26.1194521 41.2668493,26.9632877 39.6208219,26.9632877 C34.8580822,26.9632877 34.5227397,23.1693151 34.3539726,21.4794521 L49.740274,21.4794521 L49.740274,20.4252055 C49.740274,10.1808219 43.6273973,8.07013699 39.2021918,8.07013699 C29.3808219,8.07013699 28.4536986,16.7167123 28.4536986,19.4147945 C28.4493151,28.6509589 33.2975342,31.6865753 39.6186301,31.6865753 Z M39.1145205,12.9183562 C41.010411,12.9183562 43.3315068,14.0164384 43.6668493,17.6416438 L34.5205479,17.6416438 C34.8558904,14.6893151 36.3287671,12.9183562 39.1145205,12.9183562 Z" id="Shape"></path>
                <rect id="Rectangle-path" x="51.2986301" y="0.817534247" width="5.90465753" height="30.2772603"></rect>
                <path d="M84.7013699,10.4526027 C84.7013699,5.51452055 81.7643836,0.707945205 74.1917808,0.707945205 L67.1715068,0.707945205 L67.1715068,5.90027397 L72.3616438,5.90027397 C75.4673973,5.90027397 78.2356164,6.57972603 78.2356164,10.4526027 C78.2356164,14.3254795 75.4673973,15.0071233 72.3616438,15.0071233 L67.1715068,15.0071233 L67.1715068,20.1950685 L74.1917808,20.1950685 C81.7643836,20.1972603 84.7013699,15.3906849 84.7013699,10.4526027 Z" id="Shape"></path>
                <path d="M100.324384,8.70794521 C99.9430137,8.58082192 99.430137,8.49534247 99.0071233,8.49534247 C96.070137,8.49534247 93.0936986,10.4109589 91.9868493,13.1769863 L91.9013699,13.1769863 L91.9013699,9.09150685 L86.1589041,9.09150685 L86.1589041,31.0926027 L92.1994521,31.0926027 L92.1994521,21.1769863 C92.1994521,17.3019178 93.7315068,14.1128767 98.1567123,14.1128767 C98.8778082,14.1128767 99.7742466,14.1983562 100.324384,14.3254795 L100.324384,8.70794521 L100.324384,8.70794521 Z" id="Shape"></path>
                <path d="M121.472877,24.2827397 L116.153425,24.2827397 C115.772055,25.6416438 113.814795,27.1342466 111.390685,27.1342466 C108.028493,27.1342466 106.156712,25.3873973 105.987945,21.5605479 L121.856438,21.5605479 C122.279452,14.790137 118.665205,8.49315068 111.178082,8.49315068 C104.499726,8.49315068 99.9452055,13.5189041 99.9452055,20.1117808 C99.9452055,26.9194521 104.245479,31.6843836 111.178082,31.6843836 C116.155616,31.6865753 119.769863,29.4772603 121.472877,24.2827397 Z M111.004932,13.049863 C113.941918,13.049863 115.26137,14.6652055 115.813699,17.7315068 L105.987945,17.7315068 C106.071233,16.0284932 107.178082,13.049863 111.004932,13.049863 Z" id="Shape"></path>
                <path d="M143.04,24.0284932 C143.04,19.9408219 139.592329,18.6652055 136.06137,17.8564384 C132.618082,17.0476712 129.214247,16.7517808 129.214247,14.579726 C129.214247,12.7934247 131.213151,12.5369863 132.576438,12.5369863 C134.74411,12.5369863 136.532603,13.1747945 136.70137,15.5156164 L142.443836,15.5156164 C141.974795,10.1150685 137.551781,8.49534247 132.745205,8.49534247 C128.021918,8.49534247 123.173699,9.94191781 123.173699,15.5616438 C123.173699,19.4323288 126.660822,20.6684932 130.145753,21.4312329 C134.487671,22.3671233 136.995068,23.0071233 136.995068,24.8372603 C136.995068,26.9632877 134.783562,27.6471233 133.038904,27.6471233 C130.656438,27.6471233 128.444932,26.5841096 128.403288,23.9452055 L122.65863,23.9452055 C122.915068,29.7753425 127.892603,31.6887671 132.99726,31.6887671 C138.01863,31.6865753 143.04,29.8147945 143.04,24.0284932 Z" id="Shape"></path>
                <path d="M157.203288,17.8564384 C153.757808,17.0476712 150.353973,16.7517808 150.353973,14.579726 C150.353973,12.7934247 152.352877,12.5369863 153.716164,12.5369863 C155.883836,12.5369863 157.670137,13.1747945 157.843288,15.5156164 L163.583562,15.5156164 C163.116712,10.1150685 158.691507,8.49534247 153.884932,8.49534247 C149.161644,8.49534247 144.313425,9.94191781 144.313425,15.5616438 C144.313425,19.4323288 147.80274,20.6684932 151.292055,21.4312329 C155.629589,22.3671233 158.14137,23.0071233 158.14137,24.8372603 C158.14137,26.9632877 155.927671,27.6471233 154.185205,27.6471233 C151.80274,27.6471233 149.589041,26.5841096 149.547397,23.9452055 L143.804932,23.9452055 C144.056986,29.7753425 149.036712,31.6887671 154.143562,31.6887671 C159.16274,31.6887671 164.179726,29.8169863 164.179726,24.0306849 C164.177534,19.9408219 160.734247,18.6652055 157.203288,17.8564384 Z" id="Shape"></path>
            </g>
        </g>
    </g>
</svg>