<svg xmlns="http://www.w3.org/2000/svg" viewBox="0 0 106.56 81.94"><defs><style>.cls-1{fill:#e0fcc4;}</style></defs><title>qs-logo-new</title><g id="Layer_2" data-name="Layer 2"><g id="Layer_1-2" data-name="Layer 1"><circle class="cls-1" cx="12.38" cy="1.98" r="1.98"/><circle class="cls-1" cx="17.58" cy="1.98" r="1.98"/><circle class="cls-1" cx="22.78" cy="1.98" r="1.98"/><circle class="cls-1" cx="22.61" cy="1.98" r="1.98"/><circle class="cls-1" cx="27.9" cy="1.98" r="1.98"/><circle class="cls-1" cx="33.1" cy="1.98" r="1.98"/><circle class="cls-1" cx="38.3" cy="1.98" r="1.98"/><circle class="cls-1" cx="7.18" cy="7.16" r="1.98"/><circle class="cls-1" cx="12.38" cy="7.16" r="1.98"/><circle class="cls-1" cx="17.58" cy="7.16" r="1.98"/><circle class="cls-1" cx="22.78" cy="7.16" r="1.98"/><circle class="cls-1" cx="22.61" cy="7.16" r="1.98"/><circle class="cls-1" cx="27.9" cy="7.16" r="1.98"/><circle class="cls-1" cx="33.1" cy="7.16" r="1.98"/><circle class="cls-1" cx="38.3" cy="7.16" r="1.98"/><circle class="cls-1" cx="43.5" cy="7.16" r="1.98"/><circle class="cls-1" cx="1.98" cy="12.34" r="1.98"/><circle class="cls-1" cx="7.18" cy="12.34" r="1.98"/><circle class="cls-1" cx="12.38" cy="12.34" r="1.98"/><circle class="cls-1" cx="17.58" cy="12.34" r="1.98"/><circle class="cls-1" cx="22.78" cy="12.34" r="1.98"/><circle class="cls-1" cx="22.61" cy="12.34" r="1.98"/><circle class="cls-1" cx="27.9" cy="12.34" r="1.98"/><circle class="cls-1" cx="33.1" cy="12.34" r="1.98"/><circle class="cls-1" cx="38.3" cy="12.34" r="1.98"/><circle class="cls-1" cx="43.5" cy="12.34" r="1.98"/><circle class="cls-1" cx="48.7" cy="12.34" r="1.98"/><circle class="cls-1" cx="1.98" cy="17.52" r="1.98"/><circle class="cls-1" cx="7.18" cy="17.52" r="1.98"/><circle class="cls-1" cx="12.38" cy="17.52" r="1.98"/><circle class="cls-1" cx="38.3" cy="17.52" r="1.98"/><circle class="cls-1" cx="43.5" cy="17.52" r="1.98"/><circle class="cls-1" cx="48.7" cy="17.52" r="1.98"/><circle class="cls-1" cx="1.98" cy="22.7" r="1.98"/><circle class="cls-1" cx="7.18" cy="22.7" r="1.98"/><circle class="cls-1" cx="12.38" cy="22.7" r="1.98"/><circle class="cls-1" cx="38.3" cy="22.7" r="1.98"/><circle class="cls-1" cx="43.5" cy="22.7" r="1.98"/><circle class="cls-1" cx="48.7" cy="22.7" r="1.98"/><circle class="cls-1" cx="1.98" cy="27.88" r="1.98"/><circle class="cls-1" cx="7.18" cy="27.88" r="1.98"/><circle class="cls-1" cx="12.38" cy="27.88" r="1.98"/><circle class="cls-1" cx="38.3" cy="27.88" r="1.98"/><circle class="cls-1" cx="43.5" cy="27.88" r="1.98"/><circle class="cls-1" cx="48.7" cy="27.88" r="1.98"/><circle class="cls-1" cx="1.98" cy="33.06" r="1.98"/><circle class="cls-1" cx="7.18" cy="33.06" r="1.98"/><circle class="cls-1" cx="12.38" cy="33.06" r="1.98"/><circle class="cls-1" cx="38.3" cy="33.06" r="1.98"/><circle class="cls-1" cx="43.5" cy="33.06" r="1.98"/><circle class="cls-1" cx="48.7" cy="33.06" r="1.98"/><circle class="cls-1" cx="1.98" cy="38.24" r="1.98"/><circle class="cls-1" cx="7.18" cy="38.24" r="1.98"/><circle class="cls-1" cx="12.38" cy="38.24" r="1.98"/><circle class="cls-1" cx="38.3" cy="38.24" r="1.98"/><circle class="cls-1" cx="43.5" cy="38.24" r="1.98"/><circle class="cls-1" cx="48.7" cy="38.24" r="1.98"/><circle class="cls-1" cx="1.98" cy="43.61" r="1.98"/><circle class="cls-1" cx="7.18" cy="43.61" r="1.98"/><circle class="cls-1" cx="12.38" cy="43.61" r="1.98"/><circle class="cls-1" cx="38.3" cy="43.61" r="1.98"/><circle class="cls-1" cx="43.5" cy="43.61" r="1.98"/><circle class="cls-1" cx="48.7" cy="43.61" r="1.98"/><circle class="cls-1" cx="1.98" cy="48.79" r="1.98"/><circle class="cls-1" cx="7.18" cy="48.79" r="1.98"/><circle class="cls-1" cx="12.38" cy="48.79" r="1.98"/><circle class="cls-1" cx="38.3" cy="48.79" r="1.98"/><circle class="cls-1" cx="43.52" cy="48.79" r="1.98"/><circle class="cls-1" cx="48.73" cy="48.79" r="1.98"/><circle class="cls-1" cx="1.98" cy="53.97" r="1.98"/><circle class="cls-1" cx="7.18" cy="53.97" r="1.98"/><circle class="cls-1" cx="12.38" cy="53.97" r="1.98"/><circle class="cls-1" cx="17.58" cy="53.97" r="1.98"/><circle class="cls-1" cx="22.78" cy="53.97" r="1.98"/><circle class="cls-1" cx="22.61" cy="53.97" r="1.98"/><circle class="cls-1" cx="27.9" cy="53.97" r="1.98"/><circle class="cls-1" cx="33.1" cy="53.97" r="1.98"/><circle class="cls-1" cx="38.31" cy="53.97" r="1.98"/><circle class="cls-1" cx="43.52" cy="53.97" r="1.98"/><circle class="cls-1" cx="48.73" cy="53.97" r="1.98"/><circle class="cls-1" cx="7.18" cy="59.15" r="1.98"/><circle class="cls-1" cx="12.38" cy="59.15" r="1.98"/><circle class="cls-1" cx="17.58" cy="59.15" r="1.98"/><circle class="cls-1" cx="22.78" cy="59.15" r="1.98"/><circle class="cls-1" cx="22.61" cy="59.15" r="1.98"/><circle class="cls-1" cx="27.9" cy="59.15" r="1.98"/><circle class="cls-1" cx="33.1" cy="59.15" r="1.98"/><circle class="cls-1" cx="38.31" cy="59.15" r="1.98"/><circle class="cls-1" cx="43.52" cy="59.15" r="1.98"/><circle class="cls-1" cx="12.38" cy="64.33" r="1.98"/><circle class="cls-1" cx="17.58" cy="64.33" r="1.98"/><circle class="cls-1" cx="22.78" cy="64.33" r="1.98"/><circle class="cls-1" cx="22.61" cy="64.33" r="1.98"/><circle class="cls-1" cx="27.9" cy="64.33" r="1.98"/><circle class="cls-1" cx="33.1" cy="64.33" r="1.98"/><circle class="cls-1" cx="38.31" cy="64.33" r="1.98"/><circle class="cls-1" cx="27.9" cy="69.51" r="1.98"/><circle class="cls-1" cx="33.1" cy="69.51" r="1.98"/><circle class="cls-1" cx="33.1" cy="74.7" r="1.98"/><circle class="cls-1" cx="38.31" cy="69.51" r="1.98"/><circle class="cls-1" cx="38.31" cy="74.7" r="1.98"/><circle class="cls-1" cx="43.52" cy="74.7" r="1.98"/><circle class="cls-1" cx="38.31" cy="79.96" r="1.98"/><circle class="cls-1" cx="43.52" cy="79.96" r="1.98"/><circle class="cls-1" cx="48.73" cy="79.96" r="1.98"/><circle class="cls-1" cx="67.99" cy="1.98" r="1.98"/><circle class="cls-1" cx="73.19" cy="1.98" r="1.98"/><circle class="cls-1" cx="78.39" cy="1.98" r="1.98"/><circle class="cls-1" cx="83.59" cy="1.98" r="1.98"/><circle class="cls-1" cx="83.59" cy="1.98" r="1.98"/><circle class="cls-1" cx="88.98" cy="1.98" r="1.98"/><circle class="cls-1" cx="94.18" cy="1.98" r="1.98"/><circle class="cls-1" cx="62.79" cy="7.16" r="1.98"/><circle class="cls-1" cx="67.99" cy="7.16" r="1.98"/><circle class="cls-1" cx="73.19" cy="7.16" r="1.98"/><circle class="cls-1" cx="78.39" cy="7.16" r="1.98"/><circle class="cls-1" cx="83.59" cy="7.16" r="1.98"/><circle class="cls-1" cx="83.59" cy="7.16" r="1.98"/><circle class="cls-1" cx="88.98" cy="7.16" r="1.98"/><circle class="cls-1" cx="94.18" cy="7.16" r="1.98"/><circle class="cls-1" cx="99.38" cy="7.16" r="1.98"/><circle class="cls-1" cx="57.58" cy="12.34" r="1.98"/><circle class="cls-1" cx="62.79" cy="12.34" r="1.98"/><circle class="cls-1" cx="67.99" cy="12.34" r="1.98"/><circle class="cls-1" cx="73.19" cy="12.34" r="1.98"/><circle class="cls-1" cx="78.39" cy="12.34" r="1.98"/><circle class="cls-1" cx="83.59" cy="12.34" r="1.98"/><circle class="cls-1" cx="83.59" cy="12.34" r="1.98"/><circle class="cls-1" cx="88.98" cy="12.34" r="1.98"/><circle class="cls-1" cx="94.18" cy="12.34" r="1.98"/><circle class="cls-1" cx="99.38" cy="12.34" r="1.98"/><circle class="cls-1" cx="104.58" cy="12.34" r="1.98"/><circle class="cls-1" cx="57.58" cy="17.52" r="1.98"/><circle class="cls-1" cx="62.79" cy="17.52" r="1.98"/><circle class="cls-1" cx="67.99" cy="17.52" r="1.98"/><circle class="cls-1" cx="57.58" cy="22.7" r="1.98"/><circle class="cls-1" cx="62.79" cy="22.7" r="1.98"/><circle class="cls-1" cx="67.99" cy="22.7" r="1.98"/><circle class="cls-1" cx="57.58" cy="27.88" r="1.98"/><circle class="cls-1" cx="62.79" cy="27.88" r="1.98"/><circle class="cls-1" cx="67.99" cy="27.88" r="1.98"/><circle class="cls-1" cx="73.19" cy="27.88" r="1.98"/><circle class="cls-1" cx="78.39" cy="27.88" r="1.98"/><circle class="cls-1" cx="83.59" cy="27.88" r="1.98"/><circle class="cls-1" cx="57.58" cy="33.06" r="1.98"/><circle class="cls-1" cx="62.79" cy="33.06" r="1.98"/><circle class="cls-1" cx="67.99" cy="33.06" r="1.98"/><circle class="cls-1" cx="73.19" cy="33.06" r="1.98"/><circle class="cls-1" cx="78.39" cy="33.06" r="1.98"/><circle class="cls-1" cx="83.59" cy="33.06" r="1.98"/><circle class="cls-1" cx="88.98" cy="27.88" r="1.98"/><circle class="cls-1" cx="94.18" cy="27.88" r="1.98"/><circle class="cls-1" cx="99.38" cy="27.88" r="1.98"/><circle class="cls-1" cx="62.79" cy="38.24" r="1.98"/><circle class="cls-1" cx="67.99" cy="38.24" r="1.98"/><circle class="cls-1" cx="73.19" cy="38.24" r="1.98"/><circle class="cls-1" cx="78.39" cy="38.24" r="1.98"/><circle class="cls-1" cx="83.59" cy="38.24" r="1.98"/><circle class="cls-1" cx="88.98" cy="33.06" r="1.98"/><circle class="cls-1" cx="94.18" cy="33.06" r="1.98"/><circle class="cls-1" cx="99.38" cy="33.06" r="1.98"/><circle class="cls-1" cx="104.58" cy="33.06" r="1.98"/><circle class="cls-1" cx="88.98" cy="38.24" r="1.98"/><circle class="cls-1" cx="94.18" cy="38.24" r="1.98"/><circle class="cls-1" cx="99.38" cy="38.24" r="1.98"/><circle class="cls-1" cx="104.58" cy="38.24" r="1.98"/><circle class="cls-1" cx="94.18" cy="43.58" r="1.98"/><circle class="cls-1" cx="99.38" cy="43.58" r="1.98"/><circle class="cls-1" cx="104.58" cy="43.58" r="1.98"/><circle class="cls-1" cx="94.18" cy="48.76" r="1.98"/><circle class="cls-1" cx="99.38" cy="48.76" r="1.98"/><circle class="cls-1" cx="104.58" cy="48.76" r="1.98"/><circle class="cls-1" cx="57.58" cy="53.94" r="1.98"/><circle class="cls-1" cx="62.79" cy="53.94" r="1.98"/><circle class="cls-1" cx="67.99" cy="53.94" r="1.98"/><circle class="cls-1" cx="73.19" cy="53.94" r="1.98"/><circle class="cls-1" cx="78.39" cy="53.94" r="1.98"/><circle class="cls-1" cx="83.59" cy="53.94" r="1.98"/><circle class="cls-1" cx="83.59" cy="53.94" r="1.98"/><circle class="cls-1" cx="88.98" cy="53.94" r="1.98"/><circle class="cls-1" cx="94.18" cy="53.94" r="1.98"/><circle class="cls-1" cx="99.38" cy="53.94" r="1.98"/><circle class="cls-1" cx="104.58" cy="53.94" r="1.98"/><circle class="cls-1" cx="62.79" cy="59.12" r="1.98"/><circle class="cls-1" cx="67.99" cy="59.12" r="1.98"/><circle class="cls-1" cx="73.19" cy="59.12" r="1.98"/><circle class="cls-1" cx="78.39" cy="59.12" r="1.98"/><circle class="cls-1" cx="83.59" cy="59.12" r="1.98"/><circle class="cls-1" cx="83.59" cy="59.12" r="1.98"/><circle class="cls-1" cx="88.98" cy="59.12" r="1.98"/><circle class="cls-1" cx="94.18" cy="59.12" r="1.98"/><circle class="cls-1" cx="99.38" cy="59.12" r="1.98"/><circle class="cls-1" cx="67.99" cy="64.3" r="1.98"/><circle class="cls-1" cx="73.19" cy="64.3" r="1.98"/><circle class="cls-1" cx="78.39" cy="64.3" r="1.98"/><circle class="cls-1" cx="83.59" cy="64.3" r="1.98"/><circle class="cls-1" cx="83.59" cy="64.3" r="1.98"/><circle class="cls-1" cx="88.98" cy="64.3" r="1.98"/><circle class="cls-1" cx="94.18" cy="64.3" r="1.98"/></g></g></svg>