<svg xmlns="http://www.w3.org/2000/svg" xmlns:xlink="http://www.w3.org/1999/xlink" width="310" height="40" viewBox="0 0 310 40" fill='none'>
  <g fill="#e0fcc4" fill-opacity="1">
    <path d="M5.578125 37.296875C7.5625 37.296875 9.015625 35.703125 9.015625 33.71875V23.265625C9.015625 19.921875 10 18.140625 13.734375 17.1875C17.765625 16.09375 18.171875 14.890625 18.171875 13.40625C18.171875 11.40625 16.578125 9.8125 14.484375 9.8125C12.5 9.8125 10.609375 11.109375 9.0625 13.203125H8.953125L8.859375 12.5C8.515625 11.3125 7.515625 10.21875 5.53125 10.21875C3.53125 10.21875 2.09375 11.8125 2.09375 13.796875V33.71875C2.09375 35.703125 3.53125 37.296875 5.578125 37.296875Z" transform="translate(15, 0)" />
    
    <path d="M20.328125 37.703125C21.484375 37.703125 22.28125 37.25 23.875 34.109375L37.15625 7.125C37.8125 5.84375 38.65625 4.25 38.65625 3.25C38.65625 1.703125 37.703125 0.859375 36.109375 0.859375C35.015625 0.859375 34.078125 1.703125 33.171875 3.5L19.390625 31.328125C18.1875 33.609375 17.84375 34.515625 17.84375 35.3125C17.84375 36.84375 18.890625 37.703125 20.328125 37.703125Z" transform="translate(15, 0)" />
    
    <path d="M22.78125 37H32.734375C39.953125 37 44.625 32.875 44.625 26.390625C44.625 21.5625 41.796875 18.625 37.3125 17.6875V17.53125C40.25 16.234375 41.796875 13.75 41.796875 10.71875C41.796875 5.09375 37.609375 1.5625 31.9375 1.5625H22.78125C20.78125 1.5625 19.1875 3.046875 19.1875 5.046875V33.515625C19.1875 35.5 20.78125 37 22.78125 37ZM26.359375 15.640625V7.921875H30.484375C32.9375 7.921875 34.625 9.328125 34.625 11.765625C34.625 14.296875 32.78125 15.640625 30.546875 15.640625H26.359375ZM26.359375 30.625V22.015625H31.828125C34.828125 22.015625 37.21875 23.5625 37.21875 26.296875C37.21875 29.140625 35.125 30.625 31.890625 30.625H26.359375Z" transform="translate(37, 0)" />
    
    <path d="M22.578125 7.578125C24.921875 7.578125 26.75 5.734375 26.75 3.390625C26.75 1.0625 24.96875 -0.828125 22.578125 -0.828125C20.234375 -0.828125 18.34375 1.0625 18.34375 3.390625C18.34375 5.78125 20.328125 7.578125 22.578125 7.578125ZM22.578125 37.296875C24.5625 37.296875 26.015625 35.703125 26.015625 33.71875V13.796875C26.015625 11.8125 24.671875 10.21875 22.578125 10.21875C20.53125 10.21875 19.09375 11.8125 19.09375 13.796875V33.71875C19.09375 35.703125 20.53125 37.296875 22.578125 37.296875Z" transform="translate(65, 0)" />
    
    <path d="M30.734375 37.703125C38.359375 37.703125 43.484375 31.671875 43.484375 23.765625C43.484375 15.6875 38.203125 9.8125 30.734375 9.8125C23.171875 9.8125 18 15.84375 18 23.765625C18 31.671875 23.125 37.703125 30.734375 37.703125ZM30.734375 31.125C27.15625 31.125 24.96875 28.046875 24.96875 23.765625C24.96875 19.484375 27.203125 16.390625 30.6875 16.390625C34.375 16.390625 36.515625 19.53125 36.515625 23.765625C36.515625 28.046875 34.28125 31.125 30.734375 31.125Z" transform="translate(75, 0)"/>
    
    <path d="M22.578125 37.296875C24.5625 37.296875 26.015625 35.703125 26.015625 33.71875V20.71875C26.015625 17.9375 27.859375 15.75 30.734375 15.75C33.71875 15.75 35.46875 17.890625 35.46875 20.515625V33.71875C35.46875 35.703125 36.90625 37.296875 38.90625 37.296875C40.9375 37.296875 42.390625 35.75 42.390625 33.71875V18.828125C42.390625 13.40625 38.65625 9.8125 32.78125 9.8125C30.34375 9.8125 28.40625 10.421875 26.109375 12.109375H26.015625V2.203125C26.015625 0.265625 24.5625 -1.328125 22.578125 -1.328125C20.53125 -1.328125 19.09375 0.265625 19.09375 2.203125V33.71875C19.09375 35.703125 20.53125 37.296875 22.578125 37.296875Z" transform="translate(101, 0)" />
    
    <path d="M29.84375 37.703125C32.828125 37.703125 34.96875 36.703125 36.65625 34.46875H36.765625L36.859375 35.015625C37.21875 36.203125 38.15625 37.296875 40.046875 37.296875C42.09375 37.296875 43.4375 35.703125 43.4375 33.71875V13.796875C43.4375 11.8125 42.09375 10.21875 40.046875 10.21875C38.15625 10.21875 37.21875 11.3125 36.859375 12.5L36.765625 13.0625H36.65625C34.875 10.8125 32.828125 9.8125 29.84375 9.8125C23.125 9.8125 18 15.9375 18 23.765625C18 31.625 23.078125 37.703125 29.84375 37.703125ZM30.734375 31.125C27.203125 31.125 24.96875 28.046875 24.96875 23.765625C24.96875 19.53125 27.203125 16.390625 30.6875 16.390625C34.375 16.390625 36.515625 19.53125 36.515625 23.765625C36.515625 28.046875 34.328125 31.125 30.734375 31.125Z" transform="translate(127, 0)"/>
    
    <path d="M30.6875 37.703125C32.734375 37.703125 34.96875 37.25 36.65625 36.359375C38.359375 35.5 39.5 34.265625 39.5 32.765625C39.5 31.171875 38.15625 29.734375 36.609375 29.734375C36.171875 29.734375 35.46875 30.078125 34.515625 30.375C33.578125 30.734375 32.328125 31.078125 30.796875 31.078125C27.203125 31.078125 24.96875 27.890625 24.96875 23.703125C24.96875 19.578125 27.203125 16.4375 31.140625 16.4375C32.734375 16.4375 33.71875 16.84375 34.96875 17.390625C35.46875 17.640625 36.015625 17.78125 36.5625 17.78125C38.3125 17.78125 39.5 16.34375 39.5 14.5C39.5 12.90625 38.5 11.71875 36.8125 10.96875C35.265625 10.21875 33.171875 9.8125 30.84375 9.8125C23.265625 9.8125 18 15.9375 18 23.8125C18 31.53125 23.265625 37.703125 30.6875 37.703125Z" transform="translate(155, 0)"/>
    
    <path d="M22.578125 37.296875C24.5625 37.296875 26.015625 35.703125 26.015625 33.71875V24.40625L34.671875 35.015625C36.015625 36.65625 36.859375 37.296875 38.5 37.296875C40.453125 37.296875 41.84375 35.859375 41.84375 34.109375C41.84375 33.359375 41.5 32.625 40.453125 31.328125L32.53125 22.015625L37.8125 17.234375C39.796875 15.296875 40.390625 14.59375 40.390625 13.40625C40.390625 11.609375 39 10.21875 37.109375 10.21875C36.015625 10.21875 35.015625 10.8125 34.171875 11.609375L26.015625 19.375V2.203125C26.015625 0.265625 24.5625 -1.328125 22.578125 -1.328125C20.53125 -1.328125 19.09375 0.265625 19.09375 2.203125V33.71875C19.09375 35.703125 20.53125 37.296875 22.578125 37.296875Z" transform="translate(178, 0)"/>
    
    <path d="M31.234375 37.703125C34.96875 37.703125 38.703125 36.609375 40.9375 34.953125C42.28125 34.015625 43.078125 32.8125 43.078125 31.578125C43.078125 29.9375 41.890625 28.59375 40.140625 28.59375C39.65625 28.59375 39 28.828125 38.15625 29.328125C36.109375 30.625 34.125 31.375 31.984375 31.375C28 31.375 25.609375 29.234375 25.46875 26.09375H40.09375C42.484375 26.09375 43.484375 25.203125 43.484375 22.96875C43.484375 16.046875 38.609375 9.8125 31.140625 9.8125C23.375 9.8125 18 16.296875 18 23.765625C18 31.625 23.125 37.703125 31.234375 37.703125ZM25.46875 21.265625C25.609375 18.328125 28.046875 15.6875 30.9375 15.6875C33.875 15.6875 36.359375 18.328125 36.46875 21.265625H25.46875Z" transform="translate(203, 0)"/>
    
    <path d="M22.578125 37.296875C24.5625 37.296875 26.015625 35.703125 26.015625 33.71875V23.265625C26.015625 19.921875 27 18.140625 30.734375 17.1875C34.765625 16.09375 35.171875 14.890625 35.171875 13.40625C35.171875 11.40625 33.578125 9.8125 31.484375 9.8125C29.5 9.8125 27.609375 11.109375 26.0625 13.203125H25.953125L25.859375 12.5C25.515625 11.3125 24.515625 10.21875 22.53125 10.21875C20.53125 10.21875 19.09375 11.8125 19.09375 13.796875V33.71875C19.09375 35.703125 20.53125 37.296875 22.578125 37.296875Z" transform="translate(230, 0)" />
    
    </g>
</svg>