<svg xmlns="http://www.w3.org/2000/svg" xmlns:xlink="http://www.w3.org/1999/xlink" width="24" zoomAndPan="magnify" viewBox="0 0 375 374.999991" height="24" preserveAspectRatio="xMidYMid meet" version="1.0"><defs><clipPath id="a6740d1d89"><path d="M 99 82 L 289.992188 82 L 289.992188 305.125 L 99 305.125 Z M 99 82 " clip-rule="nonzero"/></clipPath><clipPath id="9ae039aca7"><path d="M 85.242188 69.625 L 276 69.625 L 276 292 L 85.242188 292 Z M 85.242188 69.625 " clip-rule="nonzero"/></clipPath><clipPath id="978fa6c209"><path d="M 90 82 L 282 82 L 282 305.125 L 90 305.125 Z M 90 82 " clip-rule="nonzero"/></clipPath></defs><g clip-path="url(#a6740d1d89)"><path fill="#fe2c55" d="M 166.644531 305.3125 L 221.96875 305.3125 L 221.96875 132.507812 L 289.355469 132.507812 L 289.355469 82.996094 L 99.015625 82.996094 L 99.015625 132.507812 L 166.644531 132.507812 Z M 166.644531 305.3125 " fill-opacity="1" fill-rule="nonzero"/></g><g clip-path="url(#9ae039aca7)"><path fill="#25f4ee" d="M 153.261719 291.945312 L 208.585938 291.945312 L 208.585938 119.136719 L 275.976562 119.136719 L 275.976562 69.625 L 85.632812 69.625 L 85.632812 119.136719 L 153.261719 119.136719 Z M 153.261719 291.945312 " fill-opacity="1" fill-rule="nonzero"/></g><g clip-path="url(#978fa6c209)"><path fill="#ffffff" d="M 158.519531 305.3125 L 213.839844 305.3125 L 213.839844 132.507812 L 281.230469 132.507812 L 281.230469 82.996094 L 90.890625 82.996094 L 90.890625 132.507812 L 158.519531 132.507812 Z M 158.519531 305.3125 " fill-opacity="1" fill-rule="nonzero"/></g></svg>